# xmcd CD database file
# Copyright (C) 1993-1998 Ti Kan
#
# Track frame offsets:
#	150
#	18100
#	45933
#	71684
#
# Disc length: 1087 seconds
#
# Revision: 1
# Processed by: cddbd v1.4b41PL1 Copyright (c) Steve Scherf et al.
# Submitted via: CDValet v3.31 - Copyright (c) 1997 Greg Leichner
#
DISCID=25043d04
DTITLE=Twice As Good Feat. Jille - You Oughta Know (Single)
DYEAR=1900
DGENRE=
TTITLE0=You Oughta Know (Radio Mix)
TTITLE1=You Oughta Know (Club Mix)
TTITLE2=You Oughta Know (Dub Mix)
TTITLE3=You Oughta Know (Acappella)
EXTD=
EXTT0=
EXTT1=
EXTT2=
EXTT3=
PLAYORDER=
